<svg xmlns="http://www.w3.org/2000/svg" viewBox="0 0 841.9 595.3">
    <symbol id="likeIcon" viewBox="0 0 512 512">
		<path d="M337.843,23.957c-45.74,0-86.155,25.047-107.364,62.788c-21.209-37.741-61.623-62.788-107.364-62.788
			C55.229,23.957,0,79.186,0,147.072c0,54.355,37.736,119.46,112.16,193.506c54.115,53.84,107.363,92.031,109.603,93.631
			c2.607,1.861,5.662,2.792,8.716,2.792s6.109-0.93,8.715-2.792c2.241-1.6,55.489-39.791,109.604-93.631
			c74.424-74.046,112.16-139.151,112.16-193.506C460.958,79.186,405.729,23.957,337.843,23.957z M327.919,319.032
			c-39.843,39.681-80.171,71.279-97.44,84.307c-17.269-13.029-57.597-44.626-97.44-84.307C65.63,251.899,30,192.436,30,147.072
			c0-51.344,41.771-93.115,93.115-93.115c47.279,0,87.03,35.369,92.464,82.271c0.876,7.565,7.284,13.273,14.9,13.273
			c7.616,0,14.023-5.708,14.9-13.273c5.435-46.902,45.185-82.271,92.464-82.271c51.344,0,93.115,41.771,93.115,93.115
			C430.958,192.436,395.328,251.899,327.919,319.032z"/>    </symbol>

    <symbol id="downloadIcon" viewBox="0 0 512 512">
        <path d="M212.991,249.518c9.767,9.66,25.508,9.624,35.25-0.1l74.888-74.887c9.763-9.763,9.763-25.592,0-35.355
				c-9.762-9.763-25.591-9.763-35.355,0l-32.21,32.209V47.596c0-13.808-11.193-25-25-25s-25,11.192-25,25v123.79l-32.21-32.209
				c-9.764-9.764-25.593-9.764-35.355,0c-9.763,9.764-9.763,25.593,0,35.355C139.121,175.656,211.868,248.403,212.991,249.518z"/>
			<path d="M431.654,312.404H28.346C12.691,312.404,0,325.094,0,340.75v68.307c0,15.655,12.691,28.346,28.346,28.346h403.307
				c15.655,0,28.346-12.691,28.346-28.346V340.75C460,325.094,447.309,312.404,431.654,312.404z"/>
    </symbol>

	<symbol id="closeIcon" viewBox="0 0 512 512">
		<polygon points="357,35.7 321.3,0 178.5,142.8 35.7,0 0,35.7 142.8,178.5 0,321.3 35.7,357 178.5,214.2 321.3,357 357,321.3 
			214.2,178.5"/>
	</symbol>

	<symbol id="blackHeart" viewBox="0 0 512 512">
		<path d="M337.843,23.957c-45.741,0-86.155,25.047-107.364,62.788c-21.209-37.741-61.623-62.788-107.364-62.788
			C55.229,23.957,0,79.186,0,147.072c0,54.355,37.736,119.461,112.16,193.506c54.115,53.84,107.363,92.031,109.603,93.631
			c2.607,1.861,5.662,2.792,8.716,2.792s6.109-0.931,8.716-2.792c2.24-1.6,55.488-39.79,109.603-93.631
			c74.424-74.046,112.16-139.151,112.16-193.506C460.958,79.186,405.729,23.957,337.843,23.957z"/>
	</symbol>				
</svg>